HIERARCHY
ROOT ui
{
	 OFFSET 0 0 0
	 CHANNELS 3 XPosition YPosition Z Position
	 EndSite
	 {
	 OFFSET 0 -1 0
	 }
}
ROOT li
{
	 OFFSET 0 0 0
	 CHANNELS 3 XPosition YPosition Z Position
	 EndSite
	 {
	 OFFSET 0 -1 0
	 }
}
ROOT ul
{
	 OFFSET 0 0 0
	 CHANNELS 3 XPosition YPosition Z Position
	 EndSite
	 {
	 OFFSET 0 -1 0
	 }
}
ROOT ll
{
	 OFFSET 0 0 0
	 CHANNELS 3 XPosition YPosition Z Position
	 EndSite
	 {
	 OFFSET 0 -1 0
	 }
}
ROOT tt
{
	 OFFSET 0 0 0
	 CHANNELS 3 XPosition YPosition Z Position
	 EndSite
	 {
	 OFFSET 0 -1 0
	 }
}
ROOT tb
{
	 OFFSET 0 0 0
	 CHANNELS 3 XPosition YPosition Z Position
	 EndSite
	 {
	 OFFSET 0 -1 0
	 }
}
ROOT td
{
	 OFFSET 0 0 0
	 CHANNELS 3 XPosition YPosition Z Position
	 EndSite
	 {
	 OFFSET 0 -1 0
	 }
}
ROOT v
{
	 OFFSET 0 0 0
	 CHANNELS 3 XPosition YPosition Z Position
	 EndSite
	 {
	 OFFSET 0 -1 0
	 }
}
ROOT bn
{
	 OFFSET 0 0 0
	 CHANNELS 3 XPosition YPosition Z Position
	 EndSite
	 {
	 OFFSET 0 -1 0
	 }
}
MOTION
Frames: 27
Frame Time: 0.002
-0.008169987678527831	2.911210060119629E-4	0		0.45733392333984374	-2.69748779296875	0		-0.7950014038085937	0.3689932861328125	0		-0.638972900390625	-2.500672119140625	0		0.9332865600585938	-0.7915659790039062	0		2.673413330078125	-0.45006396484375	0		4.253201171875	-0.023360260009765627	0		5.67525146484375	0.16642996215820313	0		0.08383232116699219	6.0406552734375	0		
-0.002415716886520386	0.00378314208984375	0		0.49523846435546875	-2.71253369140625	0		-0.727486328125	0.36311810302734376	0		-0.6049473876953125	-2.507848388671875	0		0.9299760131835938	-0.7987164916992188	0		2.678016845703125	-0.4580423889160156	0		4.2407666015625	-0.028705587387084962	0		5.6547626953125	0.16051138305664062	0		-0.0632751121520996	6.00914306640625	0		
-0.05590381622314453	0.0014292769432067871	0		0.43256698608398436	-2.699599853515625	0		-0.7899054565429687	0.36779876708984377	0		-0.6290552978515624	-2.51588232421875	0		0.9521212768554688	-0.8283667602539062	0		2.656825927734375	-0.44950616455078124	0		4.256154296875	-0.037586387634277345	0		5.6482939453125	0.1613294677734375	0		-0.06089022064208984	6.00766650390625	0		
0.002563385009765625	0.002898902893066406	0		0.4821119079589844	-2.7208583984375	0		-0.7685789794921875	0.3658416137695312	0		-0.6220747680664063	-2.51252001953125	0		0.9404332275390626	-0.8423496704101563	0		2.71187890625	-0.4734518737792969	0		4.25144775390625	-0.04406993865966797	0		5.66446826171875	0.15070944213867188	0		-0.028226842880249025	6.02761376953125	0		
-0.03613061904907226	0.005253229141235351	0		0.4599911193847656	-2.71571875	0		-0.7721575317382813	0.37737872314453125	0		-0.6193352661132813	-2.5130673828125	0		0.9826944580078125	-0.8513618774414062	0		2.697653076171875	-0.45104345703125	0		4.2601171875	-0.022807352066040038	0		5.661873046875	0.16045347595214843	0		0.08913202667236328	6.03896142578125	0		
0.0019883010387420656	0.006149322032928467	0		0.5015244750976563	-2.719785400390625	0		-0.7102827758789062	0.3686847229003906	0		-0.62085107421875	-2.51752294921875	0		0.9706422729492188	-0.867326171875	0		2.682299560546875	-0.47862771606445315	0		4.254984375	-0.034291019439697264	0		5.65080126953125	0.15434487915039063	0		0.07390342712402344	6.0288662109375	0		
-0.04417167282104492	0.0026482019424438476	0		0.45578790283203124	-2.727194580078125	0		-0.7424365844726563	0.36879046630859375	0		-0.624594482421875	-2.523924072265625	0		1.0212503662109376	-0.8924634399414062	0		2.69640478515625	-0.47276434326171873	0		4.25354248046875	-0.05285483169555664	0		5.6526806640625	0.15497671508789063	0		0.07470893096923828	6.028478515625	0		
0.012392837524414063	-0.006764242172241211	0		0.48289645385742186	-2.73296240234375	0		-0.7448524780273438	0.36434829711914063	0		-0.6244616088867188	-2.5263828125	0		0.9748797607421875	-0.9057753295898437	0		2.696896240234375	-0.48965118408203123	0		4.26349609375	-0.04063798522949219	0		5.6543759765625	0.15559170532226563	0		-0.057057891845703125	6.00655908203125	0		
0.0071536369323730465	0.004994907855987549	0		0.43101837158203127	-2.72625830078125	0		-0.7692434692382812	0.37132882690429686	0		-0.620457763671875	-2.5248955078125	0		1.0192518310546874	-0.9237667846679688	0		2.704773681640625	-0.4756749572753906	0		4.27300244140625	-0.04242950439453125	0		5.66072119140625	0.14709297180175782	0		-0.02614180374145508	6.02762451171875	0		
0.01343271541595459	5.525439977645874E-4	0		0.48875033569335935	-2.730561279296875	0		-0.7679501342773437	0.37085092163085936	0		-0.653634033203125	-2.521712158203125	0		1.0177011108398437	-0.9268993530273437	0		2.70582177734375	-0.496585693359375	0		4.286361328125	-0.04230794525146484	0		5.66205078125	0.1476583251953125	0		0.07625333404541015	6.027408203125	0		
-0.03838968658447266	0.0011759079694747925	0		0.45727340698242186	-2.73422509765625	0		-0.7318439331054688	0.36976400756835937	0		-0.5862677001953125	-2.53333984375	0		1.0394857177734376	-0.9564533081054688	0		2.7361708984375	-0.4910296630859375	0		4.2834287109375	-0.04791014099121094	0		5.65805322265625	0.14028659057617188	0		0.07649320220947266	6.027083984375	0		
0.007605392932891846	0.001044437050819397	0		0.4825269775390625	-2.74190673828125	0		-0.7709605712890625	0.3670553894042969	0		-0.6568487548828125	-2.52945458984375	0		1.0153447875976562	-0.9711707153320313	0		2.698179443359375	-0.49325100708007813	0		4.2892939453125	-0.05469392013549805	0		5.65416162109375	0.14887985229492187	0		0.07561782836914062	6.02779345703125	0		
-0.06665062713623048	-0.0019227349758148193	0		0.45267401123046874	-2.743591796875	0		-0.770207275390625	0.36664752197265627	0		-0.6149555053710938	-2.544573974609375	0		1.0339222412109375	-0.9916516723632812	0		2.717029541015625	-0.4945052185058594	0		4.29010498046875	-0.054410995483398436	0		5.64180419921875	0.14158155822753907	0		-0.05582554244995117	6.00483447265625	0		
0.017020593643188475	-6.834359765052796E-4	0		0.46554449462890624	-2.75003173828125	0		-0.75471337890625	0.3609996643066406	0		-0.635034423828125	-2.54656689453125	0		1.0214335327148438	-1.0055753173828126	0		2.7262978515625	-0.5186026611328125	0		4.29181298828125	-0.05017236328125	0		5.65139794921875	0.14085084533691405	0		-0.023606687545776366	6.02397314453125	0		
-0.024324552536010742	0.009783598899841308	0		0.4704067993164063	-2.746318603515625	0		-0.71523583984375	0.36295721435546874	0		-0.5962711791992188	-2.547577392578125	0		1.0409503173828125	-1.0100592651367188	0		2.742109375	-0.5028212585449219	0		4.300185546875	-0.05608273696899414	0		5.64701318359375	0.15032432556152345	0		-0.02579901313781738	6.02573486328125	0		
0.0178266544342041	-0.0012044390439987182	0		0.46387533569335937	-2.75539990234375	0		-0.7638467407226562	0.36848016357421876	0		-0.6387659912109375	-2.553144775390625	0		1.0250616455078125	-1.0289217529296875	0		2.697188720703125	-0.5199976806640625	0		4.29642041015625	-0.061810501098632814	0		5.63319287109375	0.14291412353515626	0		0.0759139404296875	6.02569873046875	0		
-0.03495240020751953	-5.245180130004882E-4	0		0.4861942138671875	-2.76497607421875	0		-0.6997310180664063	0.36405661010742185	0		-0.580298583984375	-2.55345263671875	0		1.0422496337890625	-1.036357421875	0		2.756286865234375	-0.5300003051757812	0		4.29663916015625	-0.06163744354248047	0		5.62927099609375	0.1362863311767578	0		-0.056849834442138675	6.0037578125	0		
0.013223635673522948	0.0024150660037994386	0		0.4586048278808594	-2.761679931640625	0		-0.7635872802734375	0.3678706970214844	0		-0.642039306640625	-2.55766162109375	0		1.0792586669921875	-1.048132080078125	0		2.741259521484375	-0.540728759765625	0		4.30163720703125	-0.06857752990722656	0		5.6244951171875	0.14363262939453125	0		0.07513632202148438	6.0252431640625	0		
0.018192218780517577	-0.0018879159688949584	0		0.46870306396484374	-2.771033203125	0		-0.7635778198242188	0.36759222412109377	0		-0.6339739379882813	-2.56806640625	0		1.0487994384765624	-1.0817462158203126	0		2.74657958984375	-0.5268209838867187	0		4.31474755859375	-0.0646835708618164	0		5.63421142578125	0.12568484497070312	0		-0.04250286102294922	6.01404150390625	0		
0.022227352142333984	8.33594024181366E-4	0		0.4419366149902344	-2.767749755859375	0		-0.7595514526367187	0.37125885009765625	0		-0.6416376342773438	-2.558186279296875	0		1.11942138671875	-1.1080943603515625	0		2.729244140625	-0.5475457763671875	0		4.3057548828125	-0.06343860244750976	0		5.63834033203125	0.13479867553710936	0		0.07426557159423829	6.02482470703125	0		
0.013194401741027833	0.0017829439640045166	0		0.48303485107421873	-2.7696259765625	0		-0.7286985473632812	0.36647854614257813	0		-0.6455970458984375	-2.56236279296875	0		1.1171668701171875	-1.1241934814453125	0		2.776305419921875	-0.543382568359375	0		4.30648583984375	-0.07639068603515625	0		5.6193173828125	0.13726828002929686	0		-0.05953376770019531	6.00389404296875	0		
0.018052726745605468	-0.002502532958984375	0		0.42513998413085935	-2.767816162109375	0		-0.7637865600585938	0.36683102416992186	0		-0.612618408203125	-2.56816015625	0		1.240917236328125	-1.1394381103515625	0		2.743080322265625	-0.5538692626953124	0		4.3263798828125	-0.07869454193115234	0		5.6250830078125	0.12827561950683594	0		0.072450927734375	6.025443359375	0		
0.01796780014038086	-0.002702336072921753	0		0.46199713134765624	-2.77962158203125	0		-0.7638893432617188	0.3665934143066406	0		-0.651590576171875	-2.568729736328125	0		1.1097705078125	-1.1453587646484376	0		2.756935302734375	-0.5591737060546875	0		4.31530029296875	-0.07849971771240234	0		5.62499169921875	0.128346923828125	0		0.08824163818359375	6.0349736328125	0		
-0.035115623474121095	-0.0020075199604034422	0		0.4449228515625	-2.785515625	0		-0.7490823364257813	0.36110748291015626	0		-0.6376443481445313	-2.5731943359375	0		1.2572667236328126	-1.1740108642578124	0		2.781644287109375	-0.5726808471679687	0		4.33215966796875	-0.0818082504272461	0		5.6338603515625	0.1262279510498047	0		-0.02832075309753418	6.02273779296875	0		
0.03386650466918945	0.0016235239505767822	0		0.47593936157226563	-2.7852265625	0		-0.7600339965820313	0.37006210327148437	0		-0.6356141357421875	-2.571453857421875	0		1.128351318359375	-1.164996826171875	0		2.77785888671875	-0.5557230224609375	0		4.33918701171875	-0.07498075866699219	0		5.633763671875	0.12621957397460937	0		-0.029604877471923828	6.0235498046875	0		
-0.040211696624755856	0.0026632049083709715	0		0.43301727294921877	-2.779697265625	0		-0.7641995239257813	0.36590225219726563	0		-0.618685302734375	-2.574964111328125	0		1.2528392333984375	-1.1932734375	0		2.747402587890625	-0.5783456420898437	0		4.335	-0.08100069427490235	0		5.62955419921875	0.1192352294921875	0		-0.06120761108398438	6.00286669921875	0		
0.01761722755432129	-0.003523690938949585	0		0.46468756103515624	-2.798435791015625	0		-0.7292906494140625	0.3650867004394531	0		-0.6458258056640624	-2.581733154296875	0		1.2566326904296874	-1.202525634765625	0		2.765316162109375	-0.57980419921875	0		4.33083935546875	-0.086056640625	0		5.624625	0.12822030639648438	0		-0.047208003997802735	6.0144169921875	0		
